<svg xmlns="http://www.w3.org/2000/svg" xmlns:svg="http://www.w3.org/2000/svg" id="svg3374" width="600" height="600" version="1.1" viewBox="0 0 600 600"><metadata id="metadata3379"/><g id="layer2" style="display:inline"><rect style="fill:#4d4d4d;fill-opacity:1;stroke:none;stroke-opacity:1" id="rect3391" width="600" height="600" x="0" y="-600" transform="scale(1,-1)"/></g><g id="layer1" transform="translate(0,-452.36216)"><path style="fill:#fff;fill-opacity:1;stroke:none" id="path3798" d="M 45.248704,741.25521 C 102.5745,854.14905 258.2743,893.59435 393.0308,829.34661 527.78724,765.09892 590.54085,621.5018 533.21508,508.60799 l -0.15743,0.0749 C 549.6941,551.69541 458.85754,635.85422 326.75872,698.83485 194.65773,761.81647 70.421944,780.19854 45.405824,741.18019 l -0.15743,0.0749 z"/><path style="fill:#5a0;fill-opacity:1;stroke:#fff;stroke-width:14.2173996;stroke-miterlimit:4;stroke-dasharray:none" id="path3876" d="M 468.60742,481.85825 A 88.379959,263.75894 63.801308 0 0 251.52539,543.3895 88.379959,263.75894 63.801308 0 0 53.880859,739.1356 88.379959,263.75894 63.801308 0 0 329.5625,701.99107 88.379959,263.75894 63.801308 0 0 527.20703,506.24497 88.379959,263.75894 63.801308 0 0 468.60742,481.85825 Z m -8.88867,3.48829 A 84.208823,256.65643 63.736829 0 1 520.89453,508.18833 84.208823,256.65643 63.736829 0 1 327.85742,697.2938 84.208823,256.65643 63.736829 0 1 60.533203,735.24888 84.208823,256.65643 63.736829 0 1 253.57031,546.14341 84.208823,256.65643 63.736829 0 1 459.71875,485.34654 Z"/></g><g id="layer4"><text xml:space="preserve" style="font-style:normal;font-variant:normal;font-weight:400;font-stretch:normal;font-size:137.78588867px;line-height:125%;font-family:'Kingthings Christmas 2';-inkscape-font-specification:'Kingthings Christmas 2';letter-spacing:0;word-spacing:0;fill:#000;fill-opacity:1;stroke:none;stroke-width:1px;stroke-linecap:butt;stroke-linejoin:miter;stroke-opacity:1" id="text3397" x="36.885" y="557.145"><tspan id="tspan3399" x="36.885" y="557.145" style="font-style:normal;font-variant:normal;font-weight:400;font-stretch:normal;font-family:'Century Gothic';-inkscape-font-specification:'Century Gothic';fill:#fff">melon</tspan></text><text xml:space="preserve" style="font-style:normal;font-variant:normal;font-weight:400;font-stretch:normal;font-size:63.69992065px;line-height:125%;font-family:'Kingthings Christmas 2';-inkscape-font-specification:'Kingthings Christmas 2';letter-spacing:0;word-spacing:0;fill:#000;fill-opacity:1;stroke:none;stroke-width:1px;stroke-linecap:butt;stroke-linejoin:miter;stroke-opacity:1" id="text3401" x="454.295" y="556.42"><tspan id="tspan3403" x="454.295" y="556.42" style="font-style:normal;font-variant:normal;font-weight:400;font-stretch:normal;font-size:127.39984131px;font-family:'Century Gothic';-inkscape-font-specification:'Century Gothic';fill:#5a0;fill-opacity:1">JS</tspan></text></g></svg>